# xmcd
#
# Track frame offsets:
#	150
#	6232
#	18832
#	28733
#	40423
#	55554
#	68044
#	81416
#	96106
#	110038
#	120711
#	134208
#	146407
#	162064
#	181195
#	196317
#	208632
#	221392
#	234564
#	245935
#	261344
#	271307
#	285142
#	295462
#	307584
#	319010
#
# Disc length: 4383 seconds
#
# Revision: 0
# Processed by: cddbd v1.5.1PL2 Copyright (c) Steve Scherf et al.
# Submitted via: dBpowerAMP V4.0
#
DISCID=7b111d1a
DTITLE=montez de durango - el pasito duranguense
DYEAR=2006
DGENRE=Other
TTITLE0=intro
TTITLE1=el paso
TTITLE2=pasito
TTITLE3=la milpa
TTITLE4=tamborazo
TTITLE5=el hijo aucente
TTITLE6=lupita
TTITLE7=alacran
TTITLE8=durango
TTITLE9=caminoa
TTITLE10=solitario
TTITLE11=chingon
TTITLE12=triple
TTITLE13=sonido
TTITLE14=chavo
TTITLE15=cabron
TTITLE16=una
TTITLE17=rola
TTITLE18=rolas
TTITLE19=chidas
TTITLE20=pagozar
TTITLE21=pabailar
TTITLE22=disfrutar
TTITLE23=alogrande
TTITLE24=pala
TTITLE25=raza
EXTD=el pasitoduranguense
EXTT0=
EXTT1=
EXTT2=
EXTT3=
EXTT4=
EXTT5=
EXTT6=
EXTT7=
EXTT8=
EXTT9=
EXTT10=
EXTT11=
EXTT12=
EXTT13=
EXTT14=
EXTT15=
EXTT16=
EXTT17=
EXTT18=
EXTT19=
EXTT20=
EXTT21=
EXTT22=
EXTT23=
EXTT24=
EXTT25=
PLAYORDER=
